<?xml version="1.0" encoding="UTF-8" standalone="no"?>
<svg
   width="128mm"
   height="128.5mm"
   viewBox="0 0 128.00001 128.50002"
   version="1.1"
   id="svg8"
   inkscape:version="1.1.2 (b8e25be833, 2022-02-05)"
   sodipodi:docname="FourierGenerator.svg"
   xmlns:inkscape="http://www.inkscape.org/namespaces/inkscape"
   xmlns:sodipodi="http://sodipodi.sourceforge.net/DTD/sodipodi-0.dtd"
   xmlns="http://www.w3.org/2000/svg"
   xmlns:svg="http://www.w3.org/2000/svg"
   xmlns:rdf="http://www.w3.org/1999/02/22-rdf-syntax-ns#"
   xmlns:cc="http://creativecommons.org/ns#"
   xmlns:dc="http://purl.org/dc/elements/1.1/">
  <defs
     id="defs2" />
  <sodipodi:namedview
     id="base"
     pagecolor="#ffffff"
     bordercolor="#6666ff"
     borderopacity="1"
     inkscape:pageopacity="0.0"
     inkscape:pageshadow="2"
     inkscape:zoom="1.4"
     inkscape:cx="278.21429"
     inkscape:cy="180.71429"
     inkscape:document-units="mm"
     inkscape:current-layer="layer3"
     showgrid="false"
     units="mm"
     inkscape:snap-bbox="true"
     inkscape:snap-page="true"
     inkscape:bbox-nodes="false"
     inkscape:snap-bbox-edge-midpoints="false"
     inkscape:window-width="1920"
     inkscape:window-height="1027"
     inkscape:window-x="-8"
     inkscape:window-y="22"
     inkscape:window-maximized="1"
     inkscape:snap-bbox-midpoints="true"
     inkscape:snap-nodes="false"
     inkscape:pagecheckerboard="0"
     width="60.48mm"
     inkscape:snap-text-baseline="true" />
  <metadata
     id="metadata5">
    <rdf:RDF>
      <cc:Work
         rdf:about="">
        <dc:format>image/svg+xml</dc:format>
        <dc:type
           rdf:resource="http://purl.org/dc/dcmitype/StillImage" />
      </cc:Work>
    </rdf:RDF>
  </metadata>
  <g
     inkscape:label="Layer 1"
     inkscape:groupmode="layer"
     id="layer1"
     transform="translate(0,-168.49998)">
    <rect
       style="display:inline;opacity:1;vector-effect:none;fill:#000000;fill-opacity:1;fill-rule:evenodd;stroke:none;stroke-width:1.32917;stroke-linecap:butt;stroke-linejoin:miter;stroke-miterlimit:4;stroke-dasharray:none;stroke-dashoffset:0;stroke-opacity:1;paint-order:normal"
       id="rect420"
       width="127.70476"
       height="128.5"
       x="0.17300585"
       y="168.65656" />
    <g
       aria-label="My Module"
       style="font-style:normal;font-variant:normal;font-weight:normal;font-stretch:normal;font-size:4.93889px;line-height:6.61458px;font-family:'Gotham Rounded';-inkscape-font-specification:'Gotham Rounded';font-variant-ligatures:normal;font-variant-caps:normal;font-variant-numeric:normal;font-feature-settings:normal;text-align:center;letter-spacing:0px;word-spacing:0px;writing-mode:lr-tb;text-anchor:middle;display:inline;fill:#000000;fill-opacity:1;stroke:none;stroke-width:0.264583px;stroke-linecap:butt;stroke-linejoin:miter;stroke-opacity:1"
       id="text1229" />
  </g>
  <g
     inkscape:groupmode="layer"
     id="layer2"
     inkscape:label="components" />
  <g
     inkscape:groupmode="layer"
     id="layer3"
     inkscape:label="Layer 2">
    <g
       aria-label="Fourier Generator"
       id="text1958"
       style="font-size:10.5833px;line-height:1.25;stroke-width:0.264583">
      <path
         d="M 7.4310602,5.9523971 H 5.8290959 V 7.740396 q 0,0.5426008 0.1498612,0.7544735 0.1498611,0.2067051 0.5426008,0.2067051 V 8.8824415 H 4.3408194 V 8.7015746 q 0.3927396,0 0.5374332,-0.2067051 Q 5.0281137,8.2829968 5.0281137,7.740396 V 3.9628608 q 0,-0.5477684 -0.1446935,-0.7544735 Q 4.7387266,2.9965146 4.3408194,2.9965146 V 2.8208153 H 8.5007589 V 3.8956817 H 8.361233 Q 8.2630481,3.4150924 8.1028517,3.2652312 7.9426552,3.11537 7.3742163,3.11537 H 5.8290959 v 2.5373048 h 1.5812938 q 0.3203928,0 0.4754216,-0.1601964 0.1550288,-0.1653641 0.2015375,-0.5581037 h 0.165364 V 6.6396915 H 8.0873488 Q 8.056343,5.9523971 7.4310602,5.9523971 Z"
         style="font-family:Perpetua;-inkscape-font-specification:Perpetua;fill:#ffffff"
         id="path8970" />
      <path
         d="m 12.975924,7.0220959 q 0,0.8474908 -0.58911,1.4159297 -0.583942,0.5632713 -1.462438,0.5632713 -0.878497,0 -1.4676062,-0.5632713 Q 8.872828,7.8695867 8.872828,7.0220959 q 0,-0.8578261 0.5839418,-1.4210974 0.5839422,-0.5684389 1.4676062,-0.5684389 0.883664,0 1.467606,0.5684389 0.583942,0.5632713 0.583942,1.4210974 z m -0.780312,0 q 0,-0.8009822 -0.341063,-1.2919067 -0.341064,-0.4909246 -0.930173,-0.4909246 -0.58911,0 -0.930173,0.4805893 -0.3410633,0.4805893 -0.3410633,1.302242 0,0.8061498 0.3358957,1.286739 0.3410636,0.4805893 0.9353406,0.4805893 0.594277,0 0.930173,-0.4857569 0.341063,-0.4857569 0.341063,-1.2815714 z"
         style="font-family:Perpetua;-inkscape-font-specification:Perpetua;fill:#ffffff"
         id="path8972" />
      <path
         d="m 17.244384,5.0325596 h 0.175699 v 3.1419171 q 0,0.3100576 0.129191,0.4185777 0.134358,0.1085202 0.516762,0.1085202 v 0.1808669 l -1.364253,0.072347 V 8.2674939 h -0.02067 q -0.563271,0.733803 -1.312577,0.733803 -0.537433,0 -0.883664,-0.3565662 Q 14.143808,8.2829968 14.143808,7.740396 V 5.8232065 q 0,-0.2893871 -0.144694,-0.3927397 -0.144693,-0.1033525 -0.52193,-0.1033525 V 5.1462474 l 1.204057,-0.1136878 h 0.180867 v 2.6768306 q 0,0.3927397 0.227375,0.6201153 0.232544,0.2273755 0.620116,0.2273755 0.537433,0 0.992184,-0.6149476 v -2.020542 q 0,-0.387572 -0.118856,-0.4857569 -0.118855,-0.098185 -0.609779,-0.1085202 V 5.1462474 Z"
         style="font-family:Perpetua;-inkscape-font-specification:Perpetua;fill:#ffffff"
         id="path8974" />
      <path
         d="M 19.761018,5.0325596 V 5.843877 Q 20.27778,5.3942934 20.562,5.2134265 q 0.289387,-0.1808669 0.480589,-0.1808669 0.356567,0 0.687295,0.2945547 l -0.28422,0.6666239 Q 20.846219,5.66301 20.556832,5.66301 q -0.320393,0 -0.795814,0.4547512 v 2.0567155 q 0,0.3100576 0.12919,0.4185777 0.129191,0.1085202 0.496093,0.1085202 V 8.8824415 H 18.4071 V 8.7015746 q 0.392739,0 0.511595,-0.1240231 0.124023,-0.124023 0.124023,-0.594277 V 5.9420619 q 0,-0.387572 -0.134359,-0.5012598 -0.12919,-0.1136878 -0.640785,-0.1136878 V 5.1462474 l 1.312577,-0.1136878 z"
         style="font-family:Perpetua;-inkscape-font-specification:Perpetua;fill:#ffffff"
         id="path8976" />
      <path
         d="m 23.445535,5.0325596 h 0.180867 v 3.1522523 q 0,0.3100576 0.134359,0.4134101 0.134358,0.1033526 0.490924,0.1033526 V 8.8824415 H 22.200137 V 8.7015746 q 0.449584,0 0.578774,-0.098185 0.129191,-0.1033526 0.129191,-0.4185778 V 5.885218 q 0,-0.3410634 -0.118855,-0.4495835 -0.118856,-0.1085202 -0.58911,-0.1085202 V 5.1462474 Z M 23.280171,3.0946995 q 0.191202,0 0.320393,0.1343583 0.134358,0.1291907 0.134358,0.3203929 0,0.1912022 -0.134358,0.3307281 -0.134358,0.1343583 -0.320393,0.1343583 -0.191202,0 -0.330728,-0.1343583 -0.139526,-0.1395259 -0.139526,-0.3307281 0,-0.1912022 0.134358,-0.3203929 0.139526,-0.1343583 0.335896,-0.1343583 z"
         style="font-family:Perpetua;-inkscape-font-specification:Perpetua;fill:#ffffff"
         id="path8978" />
      <path
         d="m 28.421961,7.9212629 v 0.2738843 q -0.341063,0.4340806 -0.697629,0.6201152 -0.351399,0.1860345 -0.847491,0.1860345 -0.878497,0 -1.452103,-0.5477684 -0.568439,-0.5529361 -0.568439,-1.4004269 0,-0.8526584 0.542601,-1.4366002 0.547768,-0.5839418 1.338415,-0.5839418 0.651121,0 1.136878,0.4392482 0.485757,0.4392483 0.485757,1.0490283 v 0.077514 h -2.754345 v 0.051676 q 0,0.6201152 0.186034,1.0800339 0.191202,0.4547512 0.552936,0.7131325 0.361734,0.2583814 0.754474,0.2583814 0.366901,0 0.625283,-0.1498612 0.263549,-0.1550288 0.697629,-0.6304505 z M 25.605605,6.4174835 h 2.041212 v -0.072347 q 0,-0.5012598 -0.289387,-0.7958145 -0.284219,-0.2945548 -0.713132,-0.2945548 -0.454752,0 -0.733803,0.3100576 -0.273885,0.3100576 -0.30489,0.8526584 z"
         style="font-family:Perpetua;-inkscape-font-specification:Perpetua;fill:#ffffff"
         id="path8980" />
      <path
         d="M 30.333982,5.0325596 V 5.843877 q 0.516762,-0.4495836 0.800982,-0.6304505 0.289387,-0.1808669 0.480589,-0.1808669 0.356566,0 0.687294,0.2945547 L 32.018628,5.9937382 Q 31.419183,5.66301 31.129796,5.66301 q -0.320393,0 -0.795814,0.4547512 v 2.0567155 q 0,0.3100576 0.12919,0.4185777 0.129191,0.1085202 0.496092,0.1085202 V 8.8824415 H 28.980063 V 8.7015746 q 0.39274,0 0.511595,-0.1240231 0.124023,-0.124023 0.124023,-0.594277 V 5.9420619 q 0,-0.387572 -0.134358,-0.5012598 Q 29.352132,5.3271143 28.840537,5.3271143 V 5.1462474 l 1.312578,-0.1136878 z"
         style="font-family:Perpetua;-inkscape-font-specification:Perpetua;fill:#ffffff"
         id="path8982" />
      <path
         d="m 41.418542,6.2572871 v 0.180867 q -0.403075,0 -0.578774,0.1860345 -0.170532,0.180867 -0.170532,0.6304505 v 1.6278024 q -0.211873,0.056844 -0.795815,0.1033526 -0.578774,0.046509 -0.899167,0.046509 -1.679478,0 -2.619987,-0.8268203 -0.93534,-0.8268203 -0.93534,-2.1807385 0,-0.9456757 0.408243,-1.7053168 0.41341,-0.7596412 1.147213,-1.2040571 0.73897,-0.4444159 1.565791,-0.4444159 0.496092,0 1.080034,0.1756993 0.372069,0.1085202 0.568439,0.1085202 0.258381,0 0.341063,-0.2015374 h 0.191202 V 4.541635 H 40.55038 Q 40.447028,3.7974968 39.873421,3.3530809 39.304982,2.9034973 38.540174,2.9034973 q -0.961179,0 -1.576127,0.7699764 -0.614947,0.7648088 -0.614947,1.9792011 0,1.3332477 0.707965,2.2117442 0.713132,0.8784966 1.787999,0.8784966 1.018022,0 1.018022,-0.6459533 V 7.4406737 q 0,-0.5581037 -0.149861,-0.7803117 -0.144694,-0.2222079 -0.516763,-0.2222079 h -0.232543 v -0.180867 z"
         style="font-family:Perpetua;-inkscape-font-specification:Perpetua;fill:#ffffff"
         id="path8984" />
      <path
         d="m 45.681832,7.9212629 v 0.2738843 q -0.341064,0.4340806 -0.69763,0.6201152 -0.351398,0.1860345 -0.847491,0.1860345 -0.878496,0 -1.452103,-0.5477684 -0.568439,-0.5529361 -0.568439,-1.4004269 0,-0.8526584 0.542601,-1.4366002 0.547769,-0.5839418 1.338415,-0.5839418 0.651121,0 1.136878,0.4392482 0.485757,0.4392483 0.485757,1.0490283 v 0.077514 h -2.754345 v 0.051676 q 0,0.6201152 0.186035,1.0800339 0.191202,0.4547512 0.552936,0.7131325 0.361734,0.2583814 0.754473,0.2583814 0.366902,0 0.625283,-0.1498612 0.263549,-0.1550288 0.69763,-0.6304505 z M 42.865475,6.4174835 h 2.041213 v -0.072347 q 0,-0.5012598 -0.289387,-0.7958145 -0.28422,-0.2945548 -0.713133,-0.2945548 -0.454751,0 -0.733803,0.3100576 -0.273884,0.3100576 -0.30489,0.8526584 z"
         style="font-family:Perpetua;-inkscape-font-specification:Perpetua;fill:#ffffff"
         id="path8986" />
      <path
         d="m 47.480168,5.0325596 v 0.7493059 q 0.656289,-0.7493059 1.353918,-0.7493059 0.542601,0 0.904335,0.3720691 0.361734,0.3669015 0.361734,0.9715138 v 1.689814 q 0,0.387572 0.129191,0.511595 0.12919,0.1240231 0.506427,0.1240231 V 8.8824415 H 48.735901 V 8.7015746 q 0.37207,0 0.506428,-0.093017 0.139526,-0.098185 0.139526,-0.3720691 V 6.2779576 q 0,-0.3927396 -0.237711,-0.6252828 -0.232543,-0.2325432 -0.599445,-0.2325432 -0.527098,0 -1.064531,0.733803 v 1.8293399 q 0,0.4650864 0.118856,0.594277 0.124023,0.1240231 0.511595,0.1240231 V 8.8824415 H 46.131418 V 8.7015746 q 0.428913,0 0.527097,-0.1343583 Q 46.7567,8.4276904 46.7567,7.9832745 V 5.8748827 q 0,-0.3358957 -0.118855,-0.4392482 Q 46.51899,5.3271143 46.131418,5.3271143 V 5.1462474 l 1.167883,-0.1136878 z"
         style="font-family:Perpetua;-inkscape-font-specification:Perpetua;fill:#ffffff"
         id="path8988" />
      <path
         d="m 54.823365,7.9212629 v 0.2738843 q -0.341064,0.4340806 -0.69763,0.6201152 -0.351399,0.1860345 -0.847491,0.1860345 -0.878496,0 -1.452103,-0.5477684 -0.568439,-0.5529361 -0.568439,-1.4004269 0,-0.8526584 0.542601,-1.4366002 0.547768,-0.5839418 1.338415,-0.5839418 0.651121,0 1.136878,0.4392482 0.485757,0.4392483 0.485757,1.0490283 v 0.077514 h -2.754345 v 0.051676 q 0,0.6201152 0.186035,1.0800339 0.191202,0.4547512 0.552936,0.7131325 0.361734,0.2583814 0.754473,0.2583814 0.366902,0 0.625283,-0.1498612 0.263549,-0.1550288 0.69763,-0.6304505 z M 52.007008,6.4174835 h 2.041213 v -0.072347 q 0,-0.5012598 -0.289387,-0.7958145 -0.28422,-0.2945548 -0.713133,-0.2945548 -0.454751,0 -0.733803,0.3100576 -0.273884,0.3100576 -0.30489,0.8526584 z"
         style="font-family:Perpetua;-inkscape-font-specification:Perpetua;fill:#ffffff"
         id="path8990" />
      <path
         d="M 56.735385,5.0325596 V 5.843877 q 0.516763,-0.4495836 0.800982,-0.6304505 0.289387,-0.1808669 0.480589,-0.1808669 0.356567,0 0.687295,0.2945547 l -0.28422,0.6666239 Q 57.820587,5.66301 57.531199,5.66301 q -0.320392,0 -0.795814,0.4547512 v 2.0567155 q 0,0.3100576 0.129191,0.4185777 0.12919,0.1085202 0.496092,0.1085202 V 8.8824415 H 55.381467 V 8.7015746 q 0.392739,0 0.511595,-0.1240231 0.124023,-0.124023 0.124023,-0.594277 V 5.9420619 q 0,-0.387572 -0.134358,-0.5012598 Q 55.753536,5.3271143 55.241941,5.3271143 V 5.1462474 l 1.312577,-0.1136878 z"
         style="font-family:Perpetua;-inkscape-font-specification:Perpetua;fill:#ffffff"
         id="path8992" />
      <path
         d="m 60.197695,9.0012969 q -0.439248,0 -0.754473,-0.2893871 -0.315226,-0.2945547 -0.315226,-0.7079648 0,-0.3927397 0.268717,-0.6459534 0.273884,-0.2583813 1.105872,-0.4909245 0.52193,-0.1446936 0.702797,-0.2480461 V 6.3399691 q 0,-0.4082425 -0.227375,-0.6562886 -0.227376,-0.2532137 -0.60978,-0.2532137 -0.346231,0 -0.614948,0.2170404 -0.268716,0.2170403 -0.377237,0.5891094 L 59.18484,6.1849403 q 0.113688,-0.5219303 0.490925,-0.8371555 0.382404,-0.3152252 0.893999,-0.3152252 0.604613,0 0.976682,0.3669015 0.377236,0.3617338 0.377236,1.0076872 v 1.6071319 q 0,0.3410634 0.04134,0.4650864 0.04651,0.1188554 0.170532,0.1188554 0.08268,0 0.134358,-0.067179 0.05168,-0.072347 0.118856,-0.2945547 h 0.180867 q -0.02584,0.3513986 -0.222208,0.5581037 -0.191202,0.206705 -0.506428,0.206705 -0.459918,0 -0.635618,-0.5322655 -0.279052,0.30489 -0.496092,0.4185777 -0.21704,0.1136878 -0.511595,0.1136878 z M 61.205382,8.1228004 V 6.8515642 q -0.160196,0.067179 -0.465086,0.1705317 -0.563271,0.1912022 -0.723468,0.3824044 -0.155029,0.1860345 -0.155029,0.5064274 0,0.2790518 0.165364,0.4857569 0.170532,0.2015374 0.403075,0.2015374 0.211873,0 0.444416,-0.1343582 0.232543,-0.139526 0.330728,-0.3410634 z"
         style="font-family:Perpetua;-inkscape-font-specification:Perpetua;fill:#ffffff"
         id="path8994" />
      <path
         d="m 63.990732,3.8646759 h 0.180867 v 1.260901 h 1.302242 v 0.2738842 h -1.302242 v 2.4132817 q 0,0.3772367 0.1757,0.5839418 0.175699,0.2015374 0.501259,0.2015374 0.382405,0 0.69763,-0.3617338 l 0.118855,0.1395259 q -0.490924,0.6252828 -1.13171,0.6252828 -0.480589,0 -0.780311,-0.3048899 -0.299723,-0.30489 -0.299723,-0.7854793 V 5.3994611 h -0.707965 v -0.180867 q 0.775144,-0.387572 1.245398,-1.3539182 z"
         style="font-family:Perpetua;-inkscape-font-specification:Perpetua;fill:#ffffff"
         id="path8996" />
      <path
         d="m 70.140212,7.0220959 q 0,0.8474908 -0.58911,1.4159297 -0.583942,0.5632713 -1.462438,0.5632713 -0.878497,0 -1.467606,-0.5632713 -0.583942,-0.5684389 -0.583942,-1.4159297 0,-0.8578261 0.583942,-1.4210974 0.583942,-0.5684389 1.467606,-0.5684389 0.883664,0 1.467606,0.5684389 0.583942,0.5632713 0.583942,1.4210974 z m -0.780312,0 q 0,-0.8009822 -0.341063,-1.2919067 -0.341064,-0.4909246 -0.930173,-0.4909246 -0.58911,0 -0.930173,0.4805893 -0.341063,0.4805893 -0.341063,1.302242 0,0.8061498 0.335895,1.286739 0.341064,0.4805893 0.935341,0.4805893 0.594277,0 0.930173,-0.4857569 Q 69.3599,7.8179104 69.3599,7.0220959 Z"
         style="font-family:Perpetua;-inkscape-font-specification:Perpetua;fill:#ffffff"
         id="path8998" />
      <path
         d="M 72.078067,5.0325596 V 5.843877 q 0.516763,-0.4495836 0.800982,-0.6304505 0.289387,-0.1808669 0.480589,-0.1808669 0.356567,0 0.687295,0.2945547 l -0.28422,0.6666239 Q 73.163268,5.66301 72.873881,5.66301 q -0.320392,0 -0.795814,0.4547512 v 2.0567155 q 0,0.3100576 0.129191,0.4185777 0.12919,0.1085202 0.496092,0.1085202 V 8.8824415 H 70.724149 V 8.7015746 q 0.392739,0 0.511595,-0.1240231 0.124023,-0.124023 0.124023,-0.594277 V 5.9420619 q 0,-0.387572 -0.134359,-0.5012598 -0.12919,-0.1136878 -0.640785,-0.1136878 V 5.1462474 L 71.8972,5.0325596 Z"
         style="font-family:Perpetua;-inkscape-font-specification:Perpetua;fill:#ffffff"
         id="path9000" />
    </g>
    <g
       transform="matrix(0.03527778,0,0,-0.03527778,42.673129,131.99706)"
       fill="#000000"
       stroke="none"
       id="g9507"
       style="fill:#1a1a1a">
      <path
         d="m 1230,3285 c -14,-8 -33,-14 -43,-15 -10,0 -16,-3 -14,-7 3,-5 -9,-9 -26,-10 -62,-4 -79,-12 -72,-34 4,-11 3,-19 -2,-18 -22,4 -33,-3 -33,-18 1,-17 1,-17 14,0 11,14 15,15 24,4 9,-10 6,-17 -8,-27 -10,-7 -17,-17 -14,-22 8,-13 -31,-9 -44,4 -8,8 -12,8 -12,1 0,-5 -10,-8 -22,-6 -13,2 -32,-3 -43,-12 -11,-8 -15,-15 -10,-14 6,1 19,1 30,0 17,-1 18,-3 5,-11 -13,-8 -12,-10 5,-11 11,-1 27,-1 35,0 8,0 2,-6 -15,-14 -16,-8 -37,-12 -45,-10 -18,5 -41,-39 -33,-63 3,-11 2,-13 -4,-6 -14,18 -54,24 -60,8 -3,-8 -9,-11 -14,-8 -5,3 -9,-6 -9,-20 0,-14 -4,-28 -10,-31 -5,-3 -10,-11 -10,-16 0,-6 7,-3 16,5 21,22 22,21 15,-16 -5,-23 -13,-33 -25,-32 -14,2 -16,-3 -11,-27 8,-34 -2,-72 -16,-63 -6,3 -13,-3 -16,-15 -3,-12 -9,-21 -14,-21 -5,0 -9,-5 -9,-11 0,-6 7,-9 14,-6 10,4 13,1 9,-9 -3,-7 0,-14 6,-14 13,0 15,-36 2,-44 -5,-4 -11,-1 -13,6 -3,7 -7,5 -11,-6 -4,-11 -3,-15 4,-10 7,4 9,0 5,-14 -6,-17 -3,-20 12,-17 11,2 19,-2 19,-11 0,-9 -6,-13 -14,-10 -19,8 -32,-32 -29,-84 3,-31 10,-49 27,-62 21,-17 21,-19 4,-13 -16,5 -14,0 10,-26 22,-23 25,-30 11,-25 -14,5 -17,3 -11,-11 8,-21 13,-42 14,-61 1,-7 5,-10 11,-7 6,3 7,-1 4,-10 -4,-10 6,-28 30,-50 20,-18 36,-37 36,-40 0,-4 7,-14 16,-22 14,-15 13,-17 -13,-28 -34,-14 -48,-53 -63,-168 -5,-42 -17,-103 -27,-137 -16,-54 -23,-64 -55,-81 -21,-11 -44,-32 -52,-47 -8,-15 -37,-51 -65,-81 -28,-30 -51,-59 -51,-65 -1,-13 -56,-76 -67,-76 -5,0 -29,-20 -55,-45 -27,-24 -48,-42 -48,-38 0,3 -9,-2 -21,-13 -11,-10 -18,-26 -16,-36 6,-22 -43,-65 -53,-47 -10,15 -60,-18 -54,-36 3,-7 0,-16 -7,-21 -8,-5 -10,-3 -4,6 5,9 4,11 -4,6 -9,-6 -9,-11 1,-24 10,-12 10,-14 1,-8 -8,4 -13,2 -13,-4 0,-6 -4,-9 -9,-5 -5,3 -12,-5 -16,-17 -10,-36 -37,-92 -46,-99 -5,-3 -10,-17 -11,-32 -1,-15 -8,-27 -16,-27 -8,0 -12,-6 -8,-15 3,-8 1,-15 -5,-15 -6,0 -7,-5 -4,-10 3,-5 2,-10 -2,-10 -14,0 -34,-136 -38,-250 -1,-58 -4,-109 -5,-115 -6,-28 3,-32 26,-10 15,14 31,25 36,25 5,0 6,5 3,10 -4,6 -12,7 -18,4 -7,-4 -8,-3 -4,1 10,12 39,16 32,5 -3,-5 3,-14 14,-19 26,-14 34,-14 25,1 -4,7 -3,8 5,4 6,-4 9,-11 6,-16 -3,-5 5,-16 17,-24 26,-19 42,-21 32,-4 -4,7 -3,8 5,4 6,-4 9,-11 6,-16 -3,-4 6,-15 20,-24 27,-18 39,-21 31,-7 -4,5 7,4 24,-2 19,-7 28,-17 25,-25 -3,-10 1,-12 18,-8 12,3 16,3 9,0 -6,-3 -9,-10 -6,-16 4,-6 -3,-5 -15,2 -12,6 -19,15 -16,19 6,11 -23,23 -35,16 -5,-3 -34,10 -64,30 -61,39 -85,46 -46,13 l 25,-21 -25,7 c -24,7 -24,6 -6,-8 23,-18 36,-20 36,-6 0,6 15,0 34,-12 19,-13 33,-24 31,-26 -2,-2 -15,4 -29,14 -15,9 -29,14 -32,12 -3,-3 10,-15 28,-27 18,-11 26,-21 18,-21 -9,-1 -6,-6 10,-16 17,-10 18,-13 5,-9 -11,4 -27,8 -35,9 -8,0 -22,9 -33,19 -10,11 -26,16 -36,12 -13,-4 -29,4 -49,25 -19,18 -33,26 -37,20 -8,-12 13,-42 24,-35 4,2 25,-10 47,-28 21,-17 33,-24 25,-14 -19,23 -1,21 29,-4 19,-16 20,-19 6,-15 -16,6 -17,4 -6,-9 21,-25 0,-17 -52,21 -28,19 -47,31 -44,26 7,-12 120,-93 153,-111 37,-19 26,-5 -13,18 -20,12 -34,24 -31,27 3,4 16,-1 29,-10 12,-9 31,-16 41,-16 10,0 16,-4 12,-9 -3,-6 3,-15 14,-20 25,-14 34,-14 26,-1 -3,5 3,18 14,29 19,19 19,19 -2,25 -12,3 -23,3 -26,1 -2,-3 1,-5 8,-5 7,0 9,-4 6,-10 -3,-5 -11,-10 -16,-10 -6,0 -7,5 -3,11 4,8 -1,9 -17,4 -19,-5 -21,-4 -9,5 12,9 9,10 -15,6 -19,-4 -25,-3 -17,2 11,7 10,11 -4,16 -9,3 -14,9 -11,12 3,3 19,-2 36,-10 38,-20 52,-20 26,0 -20,16 -20,16 3,9 15,-4 22,-3 20,5 -2,7 4,15 12,17 9,3 11,1 5,-4 -21,-17 -16,-35 7,-28 16,4 19,4 9,-3 -11,-8 -9,-11 9,-17 18,-6 20,-9 9,-16 -9,-5 -10,-9 -2,-9 18,0 43,12 39,19 -2,3 6,6 18,6 13,0 23,-6 23,-13 0,-7 -6,-11 -14,-8 -7,3 -20,3 -29,-1 -13,-5 -13,-8 -2,-15 12,-9 -16,-3 -51,10 -9,3 -12,1 -7,-6 4,-7 2,-12 -3,-12 -17,0 -8,-24 14,-37 25,-15 38,-16 29,-2 -4,7 0,9 12,6 11,-4 33,-9 49,-13 43,-10 119,-44 113,-50 -3,-3 -35,7 -72,22 -36,14 -76,24 -87,21 -12,-3 -33,-1 -46,4 -14,5 -28,8 -30,5 -5,-5 88,-40 132,-50 22,-5 26,-4 15,4 -13,8 -13,10 3,10 10,0 17,-7 17,-17 0,-12 3,-14 8,-6 6,9 18,7 50,-7 24,-11 40,-15 37,-10 -9,14 6,12 35,-5 15,-9 19,-14 10,-15 -13,0 -13,-1 0,-10 21,-13 39,-12 20,1 -12,8 -9,9 10,4 46,-12 55,-10 55,10 0,12 -7,20 -17,19 -9,-1 -15,5 -13,15 2,14 -11,30 -25,31 -4,0 -6,-11 -6,-25 0,-18 8,-27 30,-35 16,-5 27,-12 24,-15 -3,-3 -25,3 -49,14 -29,13 -37,20 -24,21 18,1 18,2 -5,16 l -25,15 25,-6 c 24,-5 24,-5 -3,10 -16,9 -26,19 -23,23 4,3 12,0 18,-6 7,-7 17,-12 23,-12 5,0 -1,10 -15,21 -21,17 -21,20 -5,14 14,-4 17,-3 9,5 -13,13 -47,2 -38,-12 4,-6 3,-9 -2,-6 -5,2 -37,17 -72,32 -66,30 -81,47 -19,21 50,-21 59,-18 17,5 -19,11 -30,19 -24,20 6,0 11,7 11,15 0,11 -7,14 -21,9 -14,-3 -17,-2 -8,4 9,6 6,12 -13,20 -35,16 -56,14 -26,-2 l 24,-13 -30,1 c -21,1 -29,5 -25,14 5,15 52,36 60,27 3,-3 -1,-5 -9,-5 -8,-1 -3,-7 11,-15 30,-17 44,-19 35,-5 -3,6 -1,10 5,10 7,0 10,-6 7,-14 -3,-8 -1,-17 6,-20 8,-3 7,-5 -3,-6 -10,0 -6,-6 10,-15 15,-9 19,-15 10,-15 -9,0 -5,-6 10,-15 15,-9 19,-14 10,-15 -13,0 -13,-1 0,-10 20,-13 33,-13 25,0 -6,10 7,14 34,11 8,-2 10,2 5,11 -6,11 -5,11 8,0 9,-7 15,-21 13,-31 -2,-11 8,-24 26,-35 16,-10 27,-22 24,-27 -4,-5 1,-9 10,-9 10,0 15,7 13,18 -4,20 -20,41 -29,36 -4,-2 -13,4 -20,13 -10,12 -10,14 -1,9 7,-4 12,-2 12,5 0,7 11,2 25,-11 14,-13 25,-28 25,-33 0,-5 8,-16 17,-24 10,-8 12,-11 4,-7 -9,5 -12,3 -7,-4 4,-7 15,-12 25,-12 10,0 25,-8 32,-17 12,-15 12,-16 -5,-10 -17,7 -17,6 -5,-9 8,-10 13,-26 11,-37 -2,-12 1,-17 7,-13 6,4 11,19 11,33 0,26 0,26 21,7 11,-10 32,-19 47,-19 16,0 26,-6 24,-13 -3,-14 14,-16 23,-2 3,6 1,10 -4,10 -6,0 -11,5 -11,10 0,7 7,7 21,-1 12,-6 19,-7 15,-1 -7,12 43,10 63,-2 11,-7 13,-5 8,7 -3,9 1,21 11,29 15,12 16,11 4,-4 -9,-11 -10,-18 -2,-23 5,-3 10,-1 10,5 0,6 12,2 27,-9 14,-12 29,-19 32,-16 3,4 -1,10 -9,15 -21,13 -3,12 21,-1 15,-8 24,-7 37,3 9,7 13,8 9,2 -5,-8 4,-11 26,-9 52,4 53,5 37,15 -8,5 -10,10 -5,10 6,0 15,-4 20,-9 16,-14 65,-23 65,-11 0,7 6,8 18,1 13,-7 23,-6 30,1 7,7 12,9 12,5 0,-4 8,-3 18,2 23,12 43,0 45,-28 1,-20 5,-22 37,-17 26,4 30,3 15,-4 -14,-6 -15,-9 -5,-9 8,-1 26,-4 40,-6 22,-5 22,-4 5,4 l -20,10 20,1 c 19,1 18,2 -2,10 -33,13 -29,32 5,24 15,-4 35,-11 46,-16 15,-8 16,-12 5,-20 -10,-6 -7,-7 10,-3 17,5 22,4 16,-6 -6,-9 -2,-11 16,-6 13,4 30,7 37,7 6,0 12,7 12,15 0,8 5,15 10,15 6,0 10,11 10,24 0,13 6,26 13,29 9,3 9,7 -2,20 -11,13 -11,20 -1,32 14,16 4,39 -12,29 -6,-4 -4,3 5,17 21,29 22,43 2,35 -21,-8 -19,11 3,23 16,10 16,12 -3,27 -11,8 -19,21 -17,28 1,7 -4,18 -11,24 -15,13 -11,82 5,82 5,0 6,-5 3,-10 -4,-6 -1,-18 6,-26 10,-13 10,-17 0,-24 -17,-10 -5,-31 13,-24 18,7 34,-83 30,-176 -3,-80 14,-219 25,-203 3,5 16,8 29,7 25,-1 27,7 11,38 -9,17 -6,25 17,49 26,27 28,27 60,14 30,-12 34,-12 34,1 0,7 -4,14 -9,14 -5,0 -13,9 -16,21 -7,21 -12,21 -75,7 -29,-7 -21,29 10,42 35,14 50,37 50,75 0,23 -3,25 -27,19 -16,-4 -34,-13 -40,-22 -7,-9 -15,-14 -17,-11 -12,13 -37,72 -32,76 3,3 -1,21 -9,40 -8,20 -15,46 -15,59 0,13 -4,24 -8,24 -5,0 -14,19 -21,43 -7,23 -20,65 -30,92 -10,28 -29,83 -42,123 -13,41 -28,76 -32,79 -4,3 -3,11 3,18 9,11 7,17 -10,27 -20,12 -70,105 -70,130 0,6 -6,19 -14,27 -7,9 -37,72 -66,141 -32,74 -65,136 -81,152 -16,14 -31,39 -35,55 -4,15 -31,75 -61,133 -55,106 -86,181 -78,189 3,2 13,-2 22,-10 10,-7 1,3 -19,23 -21,20 -38,40 -38,46 0,6 -34,29 -76,52 -80,44 -149,105 -164,146 -7,18 -6,33 5,52 8,15 14,23 15,17 0,-5 4,-3 10,5 7,11 17,5 50,-33 45,-51 82,-77 78,-55 -2,7 -11,19 -21,26 -10,8 -16,19 -14,25 2,7 -2,18 -10,25 -7,7 -13,22 -13,33 0,11 -7,19 -17,19 -19,1 -103,72 -103,88 0,5 -9,20 -20,34 -20,27 -32,113 -15,113 6,0 15,4 21,8 7,4 14,-1 17,-13 3,-11 12,-20 21,-20 32,0 76,-42 76,-72 0,-22 3,-26 18,-21 15,6 16,5 2,-12 -13,-16 -13,-18 0,-13 8,2 15,16 15,29 0,13 4,30 8,37 5,7 7,27 6,45 -2,18 0,37 3,42 10,17 0,115 -14,132 -7,8 -23,19 -36,24 -14,5 -22,12 -19,15 3,3 19,-2 36,-10 22,-12 32,-13 37,-4 4,7 0,16 -10,22 -47,28 -59,44 -66,90 -5,35 -4,49 6,53 7,2 10,11 7,20 -5,12 -7,12 -14,1 -6,-9 -9,-9 -9,-1 0,7 9,17 20,23 18,9 20,8 20,-15 0,-37 42,-75 82,-74 h 33 l -37,16 c -28,11 -40,23 -46,47 -12,42 -5,47 20,13 16,-22 28,-27 60,-27 h 41 l -27,25 c -14,13 -26,34 -26,47 1,29 44,83 59,74 7,-5 9,-1 5,8 -12,32 8,15 22,-19 17,-41 44,-60 98,-70 30,-5 43,-2 60,13 28,26 62,36 72,21 5,-9 2,-10 -9,-6 -21,8 -32,-10 -17,-28 14,-16 35,-21 25,-6 -17,28 105,33 135,6 11,-10 20,-13 20,-8 0,14 -46,44 -62,40 -7,-2 -10,-2 -5,0 4,3 4,10 1,15 -4,7 -2,8 5,4 6,-4 11,-4 10,1 -5,27 1,35 16,23 9,-7 14,-19 11,-26 -3,-7 9,-25 26,-39 26,-22 31,-34 32,-70 1,-41 16,-42 16,0 0,26 15,8 29,-37 7,-20 19,-39 28,-42 13,-5 14,-4 3,9 -7,9 -10,18 -6,22 3,3 6,1 6,-5 0,-6 9,-14 20,-17 11,-3 20,-12 20,-19 0,-9 -16,-12 -52,-11 -31,1 -62,-5 -75,-13 -13,-8 -23,-11 -23,-8 0,10 -27,-17 -28,-29 -1,-5 -3,-24 -5,-40 -2,-17 4,-55 14,-85 10,-30 18,-66 19,-80 0,-14 7,-36 15,-50 23,-40 18,-63 -22,-98 -37,-31 -37,-33 -15,-38 12,-4 22,-10 22,-14 0,-5 2,-15 5,-22 7,-18 -38,-41 -52,-27 -6,6 -29,5 -63,-3 -42,-10 -54,-10 -58,0 -7,21 -39,13 -46,-10 -9,-37 -7,-42 12,-26 13,12 39,15 110,13 51,-1 98,-7 103,-12 15,-15 -34,-25 -90,-18 -28,4 -41,3 -33,-3 8,-5 11,-20 7,-40 -5,-32 2,-40 21,-23 13,14 88,38 102,33 7,-2 10,-8 7,-12 -3,-5 8,-5 25,0 18,5 30,5 30,-1 0,-5 -7,-9 -16,-9 -11,0 -14,-5 -10,-16 3,-9 6,-18 6,-20 0,-3 4,-3 8,0 5,3 9,-1 9,-9 0,-8 -5,-11 -11,-8 -6,3 -6,0 1,-7 9,-10 8,-18 -4,-37 -13,-19 -18,-21 -31,-11 -12,10 -14,10 -8,1 4,-8 2,-13 -8,-13 -8,0 -17,4 -20,9 -7,10 -25,9 -43,-2 -6,-4 -15,-3 -18,3 -4,6 -14,1 -25,-12 -11,-13 -19,-17 -20,-10 0,7 -4,10 -10,7 -5,-3 -10,-1 -10,6 0,7 -3,9 -7,6 -3,-4 -11,-3 -17,2 -7,6 -12,0 -13,-20 -2,-24 4,-32 40,-53 81,-47 195,-16 277,77 58,66 74,96 55,103 -12,5 -12,9 0,27 15,25 32,109 41,207 4,42 14,74 27,92 l 21,28 12,-22 13,-23 9,25 c 7,18 5,31 -5,47 -12,18 -12,25 -1,42 17,28 28,26 28,-3 0,-14 4,-28 10,-31 11,-6 8,50 -3,61 -3,3 -3,12 0,20 3,8 0,14 -7,14 -6,0 -8,-4 -5,-10 3,-5 2,-10 -3,-10 -6,0 -13,7 -16,16 -3,8 -2,12 4,9 6,-3 10,-1 10,5 0,6 4,9 8,6 4,-2 13,3 19,13 10,16 8,17 -13,13 -30,-5 -30,-2 0,43 19,28 23,42 16,64 -6,20 -4,28 6,28 7,0 12,-3 10,-6 -2,-3 0,-15 5,-26 6,-15 7,-11 5,15 -1,19 -7,34 -13,33 -6,-1 -9,6 -6,17 4,14 0,20 -11,20 -9,0 -16,5 -16,10 0,6 -7,10 -15,10 -11,0 -15,11 -15,37 0,35 1,36 15,17 8,-10 15,-14 15,-7 0,6 -7,18 -15,27 -9,8 -14,19 -13,23 1,4 -4,19 -12,33 -12,23 -12,24 4,11 31,-26 30,-1 -3,45 l -32,46 38,-28 38,-27 -34,33 c -26,24 -40,31 -60,27 -14,-3 -34,1 -45,8 -10,8 -22,13 -25,11 -3,-2 -6,8 -6,22 0,27 17,55 29,47 3,-3 -4,7 -17,21 -13,14 -31,26 -39,28 -9,1 -23,8 -32,15 -8,7 -20,10 -25,6 -6,-3 -13,5 -17,19 -3,13 -16,34 -29,46 -20,18 -32,22 -64,17 -43,-5 -71,-26 -71,-51 0,-8 -4,-17 -9,-20 -12,-8 -22,37 -11,48 13,13 13,29 0,21 -5,-3 -10,-1 -10,5 0,6 -5,8 -10,5 -6,-4 -8,-11 -5,-16 4,-5 2,-9 -4,-9 -5,0 -13,5 -16,10 -3,6 -16,10 -28,10 -12,0 -44,11 -72,25 -57,28 -89,30 -125,10 z"
         id="path9497"
         style="fill:#1a1a1a" />
      <path
         d="m 1330,2630 c -25,-3 -54,-11 -65,-17 -18,-11 -16,-12 12,-8 19,2 36,-2 44,-11 9,-11 8,-14 -5,-14 -9,0 -16,-4 -16,-9 0,-5 -12,-12 -28,-16 -15,-3 -41,-22 -57,-42 -30,-38 -23,-37 32,5 33,24 122,45 110,25 -6,-9 17,-22 46,-27 5,0 16,-10 24,-21 13,-16 15,-17 10,-2 -4,9 -2,17 2,17 5,0 11,6 14,14 4,10 0,12 -13,9 -11,-3 -26,2 -34,10 -14,14 -12,17 19,36 43,25 46,51 8,52 -16,0 -35,2 -43,3 -8,1 -35,-1 -60,-4 z"
         id="path9499"
         style="fill:#1a1a1a" />
      <path
         d="m 1790,1948 c -8,-13 -13,-26 -12,-30 1,-5 -3,-8 -9,-8 -5,0 -7,-4 -4,-10 3,-5 1,-10 -4,-10 -6,0 -10,-3 -10,-7 4,-22 -2,-43 -10,-38 -16,9 -24,-15 -11,-30 9,-11 9,-15 1,-15 -6,0 -11,5 -11,12 0,6 -3,9 -6,5 -3,-3 -12,-1 -19,6 -10,9 -9,14 4,25 13,10 11,10 -11,1 -15,-7 -25,-15 -23,-19 3,-5 -5,-8 -18,-8 -76,-2 -236,-26 -225,-34 8,-6 -5,-7 -34,-3 -28,4 -49,2 -53,-5 -4,-6 7,-10 27,-11 46,-1 83,-14 81,-27 -4,-16 120,-27 157,-14 16,6 30,8 30,3 0,-13 -24,-31 -42,-31 -10,0 -18,-7 -18,-15 0,-8 5,-15 11,-15 5,0 8,4 5,9 -4,5 3,7 14,4 12,-3 22,1 26,10 3,8 19,21 35,27 16,7 29,17 29,23 0,6 3,7 6,4 4,-4 2,-12 -3,-19 -6,-7 -13,-26 -15,-43 -3,-16 -9,-39 -13,-49 -6,-14 -5,-17 3,-12 8,4 12,0 12,-11 0,-14 2,-15 9,-4 5,8 7,20 4,27 -2,7 1,22 7,35 9,16 14,18 20,9 5,-7 7,-18 5,-24 -3,-9 -12,-74 -17,-123 -1,-7 -5,-10 -10,-7 -5,3 -16,0 -24,-7 -13,-11 -13,-14 7,-25 13,-6 29,-10 36,-7 7,3 32,-9 57,-25 31,-21 42,-25 37,-14 -4,9 -14,32 -22,50 -7,17 -17,32 -21,32 -4,0 -8,7 -8,15 0,8 5,15 10,15 6,0 10,5 10,10 0,6 -7,10 -15,10 -17,0 -20,17 -4,22 5,2 12,34 14,72 3,56 8,73 29,95 14,14 29,38 35,52 8,22 5,31 -19,57 -15,17 -26,33 -23,36 3,3 22,-15 43,-39 25,-29 39,-57 44,-86 15,-96 66,-295 97,-376 5,-12 25,-33 46,-46 21,-14 45,-33 54,-43 20,-24 39,-203 39,-370 -1,-115 -2,-120 -30,-159 -35,-49 -79,-131 -108,-205 -15,-37 -32,-60 -52,-72 -21,-12 -30,-25 -30,-43 0,-14 4,-25 9,-25 14,0 29,-55 25,-91 -3,-28 2,-38 26,-57 17,-13 30,-19 30,-13 0,6 7,8 15,4 9,-3 24,2 35,12 10,9 23,14 29,11 5,-4 13,-1 16,5 4,5 13,8 20,5 7,-2 23,2 35,11 20,14 23,14 38,-1 16,-16 16,-17 -2,-10 -16,6 -17,4 -7,-14 6,-11 13,-35 14,-52 2,-16 7,-30 12,-29 5,0 12,-6 17,-15 5,-9 13,-14 19,-11 5,4 9,-4 10,-17 0,-22 1,-22 9,-3 5,11 9,39 9,62 1,23 6,45 12,48 5,4 8,12 6,18 -2,7 3,21 12,32 15,18 15,19 -1,6 -12,-9 -18,-10 -18,-2 0,6 3,11 8,12 4,0 17,2 30,5 17,3 21,0 16,-8 -4,-8 -3,-10 2,-5 12,12 12,30 -1,40 -6,4 -6,10 3,16 7,4 15,14 16,22 1,8 10,30 19,49 17,35 17,35 13,-58 -3,-55 -1,-90 5,-87 5,4 9,12 9,19 0,7 9,23 20,36 24,28 25,34 5,26 -8,-3 -15,-1 -15,4 0,6 11,11 25,12 14,0 31,1 38,2 18,1 87,78 80,89 -3,6 -1,7 5,3 7,-4 12,-2 12,5 0,8 5,7 17,-2 9,-8 14,-9 10,-3 -4,7 0,27 8,45 l 16,34 -6,-33 c -4,-20 -3,-32 4,-32 6,0 12,10 13,23 1,21 3,34 8,50 9,28 3,59 -21,104 -27,50 -33,74 -43,173 -9,86 -36,162 -69,194 -18,17 -52,69 -76,116 -83,163 -136,235 -203,274 -32,20 -66,36 -75,36 -25,0 -71,58 -89,113 -9,29 -20,57 -23,62 -4,6 -18,45 -31,88 -19,62 -30,83 -54,100 -17,11 -52,38 -77,59 -25,21 -50,38 -55,38 -5,0 -16,-10 -24,-22 z M 2186,633 c -5,-63 -22,-159 -25,-140 0,4 -13,-3 -28,-17 -15,-14 -30,-23 -35,-20 -5,3 -7,0 -6,-8 2,-7 -3,-12 -9,-11 -7,2 -13,-1 -13,-6 0,-5 -7,-11 -15,-15 -9,-3 -15,0 -15,10 0,8 4,13 9,10 4,-3 6,5 4,17 -3,13 5,34 18,51 23,29 42,62 85,149 13,26 27,47 30,47 3,0 3,-30 0,-67 z"
         id="path9501"
         style="fill:#1a1a1a" />
      <path
         d="m 1351,1593 c 33,-65 66,-123 75,-130 20,-15 82,-14 92,1 4,6 19,17 35,23 23,11 27,10 27,-3 0,-16 27,-13 60,7 13,8 12,9 -2,7 -9,-2 -17,0 -17,5 -3,26 0,37 10,37 5,0 7,-4 4,-10 -3,-5 2,-10 12,-10 15,0 19,8 20,41 2,36 0,39 -14,27 -10,-7 -14,-8 -10,-1 4,6 5,18 1,26 -4,12 -10,10 -31,-9 -14,-13 -32,-24 -39,-24 -8,0 -14,-4 -14,-9 0,-5 -17,-15 -37,-22 l -38,-13 35,-7 c 19,-5 45,-6 57,-4 13,2 25,0 28,-4 5,-9 -42,-21 -79,-21 -17,0 -18,2 -6,10 9,6 10,10 3,10 -6,0 -14,-4 -17,-8 -3,-4 -26,-6 -53,-3 -47,6 -48,7 -51,44 l -3,37 63,1 c 35,0 72,4 83,9 13,6 -4,7 -46,4 -73,-6 -133,14 -123,40 3,9 -6,19 -25,27 -17,8 -31,20 -31,26 0,7 -6,13 -14,13 -9,0 6,-39 45,-117 z"
         id="path9503"
         style="fill:#1a1a1a" />
      <path
         d="m 2063,927 c 4,-10 10,-24 14,-34 4,-11 3,-14 -5,-9 -8,5 -10,2 -6,-8 8,-22 -6,-42 -17,-25 -8,12 -10,12 -18,0 -6,-9 -14,-11 -26,-4 -12,7 -14,13 -6,17 13,9 15,26 2,26 -5,0 -13,-9 -16,-20 -4,-11 -11,-17 -17,-14 -7,4 -8,2 -4,-5 9,-14 -2,-51 -14,-51 -5,0 -7,7 -4,15 5,11 -1,15 -22,15 -21,0 -25,-3 -15,-9 13,-8 13,-12 0,-27 -13,-16 -12,-17 13,-12 26,5 27,3 24,-32 -2,-21 -7,-43 -11,-50 -5,-9 -4,-11 4,-6 17,11 25,-22 8,-38 -8,-8 -12,-25 -10,-38 4,-18 -2,-27 -21,-36 -27,-12 -36,-42 -13,-42 12,0 57,40 49,44 -2,0 -1,8 2,16 12,32 23,166 15,176 -10,12 11,64 25,64 4,0 5,-11 2,-24 -14,-56 45,-33 81,31 21,39 18,72 -8,89 -9,5 -10,2 -6,-9 z"
         id="path9505"
         style="fill:#1a1a1a" />
    </g>
  </g>
</svg>
